<?xml version="1.0" encoding="utf-8"?>
<!-- Generator: Adobe Illustrator 27.4.0, SVG Export Plug-In . SVG Version: 6.00 Build 0)  -->
<svg version="1.1" id="Layer_1" xmlns="http://www.w3.org/2000/svg" xmlns:xlink="http://www.w3.org/1999/xlink" x="0px" y="0px"
	 viewBox="0 0 700.7 300" style="enable-background:new 0 0 700.7 300;" xml:space="preserve">
<style type="text/css">
	.st0{fill:#1BAFE5;stroke:#1BAFE5;stroke-miterlimit:10;}
	.st1{fill:#1BAFE5;}
	.st2{fill:#585859;}
</style>
<g transform="translate(-190,180) scale(0.016963,-0.016963)">
	<g id="africa">
		<path class="st0" d="M11638.4,4251.6c65.9-82,61.5-86.5,119.2-157.7c106.3-131,190.4-200.9,237.6-247.7
			c187.9-186.2,142.1-355.4,231.5-492.2c197.8-57.9,954.2-936.7,1296.1-658c837,84,1300.8,153.3,2086,362.5
			c367.1,51.3,334.6-240.8,479.3-413.4c254.6-123.2,625.2,151.8,781.5-163.3c198.2-301.6-151-831.1-125.2-1076
			c480.5-682,901.9-1178.7,914.8-1927.9c265-680.7-587.7-1115.5-302-1848.7c525.7-494.6,434.1-1663.5,846.6-2241.5
			c166.4-214.4,315.5-628.5,397.8-808.3c-50-267.5-129.5-67.4,5.5-382.6c143.2-409.8,840.7,27.4,1298.8-68.9
			c830.5,157.8,1704.8,1174.2,1710.2,1874.3c1217.5,437.2-28.3,1074.4,737.9,1491.8c499.1,479.7,1193.8,618.6,942.1,1491.8
			c39.8,658.8-62.5,233.9-171.4,642.5c-88.2,296.5-30.7,216.7,62.7,313.6c-133.6,14.1-84.3,250.5-217.9,382.5
			c331.5,1254,1922.9,1891.1,2322.8,3106c99,194.7,436.5,933.7,54.6,849.2c-335.3-178.3-707.3-144.2-1056.6-260.2
			c-235.1-175.9-315.1,185.2-533.7,211.7c364.5,111.6-183,443.1-275,581.4c-37.1,151.1-406.9,134.4-275.1,280.5
			c79,3.6-97.9,141.3-84.3,20.4c-16.4-58.7-19.1-58.7-57.2-7.7c-146.4,561.4-552.5,712.3-555.5,1272.5
			c-369.8,634.8-791.4,1224-1054,1978.8c-10.5,610.6-693.3-40.9-1032,227c-466.5,2.2-1428.3,782.4-1459.7-20.3
			c-64.5-518.4-938.1,209.9-1151.7,323.7c-152.6,64.1-647.8,15.6-623.7,244.9c-56.9,70.6-103.1-118.8-182.4,12.7
			c-3,28.9,1.5,51.6,11,70.1c42.7,83.9,131.9,108.6,180.6,149.2c56.1,46.7,93.2,157.2-1,441.1c0,48.4-38.1,53.5-87.1,12.7
			c-98-40.1-135,189.2-326.8,45.9c-580.4-88.4-559.3-13.4-1274.4-102c-621.4-36.9-574.3-370.9-1043-311.2
			c-324.6-137.6-563.4,350.7-675.3-22.8c-362.3-496.6-823-580.8-841.3-1237c-690.3-432.7-1118.2-995-1484.3-1739.1
			c-22.7-169.2-79.9-179.1,87.1-257.4c18-231.4,103.4-439.7,8.2-770.1c2.8-208.5-253.8-473.2-231.7-535.5
			c30.7-17.6,70.7-46.8,95.3-93.5c53.7-102.1-31-165.8,0.2-284C11443.1,4437,11481,4447.3,11638.4,4251.6z"/>
		<path class="st1" d="M25235-938.5c-98.3-186.3,15.1-270.1-205-247.9c93.6-137.8-99.1,44.7-61.5-156.4
			c-38-313.7-593.6-391.5-817.1-579.3c-189-217.8,47.9-634.1-105.2-946c-287.2-311.1-290.4-975.1,105.2-1164.2
			c617-315.6,1267,1974.7,1192,2331.1C25711.9-2169.3,25436.6-690,25235-938.5z"/>
	</g>
</g>
<g>
	<path class="st2" d="M228.6,200.9h-24.1l-4.1-25.5H171l-4.1,25.5h-22l24.3-140.8h35L228.6,200.9z M174,156.3h23l-11.3-71.2h-0.4
		L174,156.3z"/>
	<path class="st2" d="M308.8,148.4v18.7c0,22.5-12.2,35.4-35.6,35.4c-23.5,0-35.6-12.9-35.6-35.4V93.9c0-22.5,12.2-35.4,35.6-35.4
		c23.5,0,35.6,12.9,35.6,35.4v13.7h-22.6V92.5c0-10.1-4.8-13.9-12.4-13.9c-7.6,0-12.4,3.8-12.4,13.9v76c0,10.1,4.8,13.7,12.4,13.7
		c7.6,0,12.4-3.6,12.4-13.7v-20.1H308.8z"/>
	<path class="st2" d="M323.4,60.1h37.8c23.9,0,35.6,12.3,35.6,34.8v71.2c0,22.5-11.7,34.8-35.6,34.8h-37.8V60.1z M347.3,80.3v100.6
		h13.5c7.6,0,12.2-3.6,12.2-13.7V93.9c0-10.1-4.6-13.7-12.2-13.7H347.3z"/>
	<path class="st2" d="M412,60.1h23.9v140.8H412V60.1z"/>
</g>
<g>
	<path class="st2" d="M463.2,85.8l9.2-23.3h3.4l9.8,23.3h-3.6l-2.8-7.1h-10l-2.6,7.1H463.2z M470.2,76.3h8.1l-2.5-6.5
		c-0.8-2-1.3-3.6-1.7-4.8c-0.3,1.5-0.7,3-1.3,4.4L470.2,76.3z"/>
	<path class="st2" d="M488.6,85.8V71.2H486V69h2.6v-1.8c0-1.1,0.1-2,0.3-2.5c0.3-0.7,0.8-1.3,1.5-1.8c0.7-0.5,1.7-0.7,3-0.7
		c0.8,0,1.7,0.1,2.8,0.3l-0.4,2.5c-0.6-0.1-1.2-0.2-1.7-0.2c-0.9,0-1.5,0.2-1.9,0.6s-0.6,1.1-0.6,2.1V69h3.4v2.2h-3.4v14.6H488.6z"
		/>
	<path class="st2" d="M497.2,85.8V69h2.7v2.6c0.7-1.2,1.3-2,1.9-2.4c0.6-0.4,1.2-0.6,1.9-0.6c1,0,2,0.3,3,0.9l-1,2.7
		c-0.7-0.4-1.4-0.6-2.2-0.6c-0.6,0-1.2,0.2-1.7,0.6c-0.5,0.4-0.9,0.9-1.1,1.6c-0.3,1-0.5,2.1-0.5,3.3v8.8H497.2z"/>
	<path class="st2" d="M508.4,65.8v-3.3h2.9v3.3H508.4z M508.4,85.8V69h2.9v16.9H508.4z"/>
	<path class="st2" d="M527.2,79.6l2.9,0.4c-0.3,1.9-1.1,3.5-2.4,4.6c-1.3,1.1-2.9,1.6-4.8,1.6c-2.4,0-4.3-0.8-5.7-2.3
		c-1.4-1.5-2.2-3.7-2.2-6.5c0-1.8,0.3-3.4,0.9-4.8c0.6-1.4,1.6-2.4,2.8-3.1s2.7-1,4.2-1c1.9,0,3.4,0.5,4.6,1.4s2,2.2,2.3,3.9
		l-2.9,0.4c-0.3-1.1-0.8-2-1.5-2.6c-0.7-0.6-1.5-0.9-2.5-0.9c-1.5,0-2.7,0.5-3.6,1.5s-1.4,2.7-1.4,4.9c0,2.3,0.4,3.9,1.3,4.9
		c0.9,1,2.1,1.5,3.5,1.5c1.2,0,2.1-0.3,2.9-1C526.5,82.1,527,81.1,527.2,79.6z"/>
	<path class="st2" d="M544,83.7c-1.1,0.9-2.1,1.5-3.2,1.9c-1,0.4-2.1,0.6-3.3,0.6c-1.9,0-3.4-0.5-4.4-1.4c-1-0.9-1.5-2.1-1.5-3.5
		c0-0.8,0.2-1.6,0.6-2.3c0.4-0.7,0.9-1.2,1.5-1.6c0.6-0.4,1.3-0.7,2.1-0.9c0.6-0.1,1.5-0.3,2.6-0.4c2.4-0.3,4.1-0.6,5.3-1
		c0-0.4,0-0.6,0-0.7c0-1.2-0.3-2-0.8-2.5c-0.8-0.6-1.9-1-3.4-1c-1.4,0-2.4,0.2-3.1,0.7c-0.7,0.5-1.2,1.3-1.5,2.5l-2.9-0.4
		c0.3-1.2,0.7-2.2,1.3-2.9c0.6-0.7,1.5-1.3,2.6-1.7c1.1-0.4,2.5-0.6,3.9-0.6c1.5,0,2.7,0.2,3.6,0.5s1.6,0.8,2,1.3
		c0.4,0.5,0.7,1.2,0.9,1.9c0.1,0.5,0.1,1.4,0.1,2.6v3.8c0,2.7,0.1,4.3,0.2,5c0.1,0.7,0.4,1.4,0.7,2h-3.1
		C544.3,85.2,544.1,84.5,544,83.7z M543.8,77.4c-1.1,0.4-2.7,0.8-4.8,1.1c-1.2,0.2-2.1,0.4-2.6,0.6c-0.5,0.2-0.9,0.5-1.2,0.9
		c-0.3,0.4-0.4,0.9-0.4,1.4c0,0.8,0.3,1.4,0.9,1.9s1.5,0.8,2.6,0.8c1.1,0,2.1-0.2,3-0.7s1.5-1.1,2-2c0.3-0.6,0.5-1.6,0.5-2.9V77.4z"
		/>
	<path class="st2" d="M551.3,85.8V69h2.7v2.4c1.3-1.9,3.1-2.8,5.5-2.8c1,0,2,0.2,2.9,0.5c0.9,0.4,1.5,0.8,2,1.4
		c0.4,0.6,0.7,1.3,0.9,2.1c0.1,0.5,0.2,1.5,0.2,2.8v10.4h-3V75.6c0-1.2-0.1-2-0.3-2.6c-0.2-0.6-0.6-1-1.2-1.4
		c-0.6-0.3-1.3-0.5-2.1-0.5c-1.3,0-2.3,0.4-3.3,1.2c-0.9,0.8-1.4,2.2-1.4,4.4v9.2H551.3z"/>
	<path class="st2" d="M483,116.7l3.2,0.8c-0.7,2.5-1.9,4.5-3.6,5.8c-1.7,1.3-3.8,2-6.4,2c-2.6,0-4.7-0.5-6.3-1.5
		c-1.6-1-2.9-2.5-3.7-4.4c-0.8-1.9-1.3-4-1.3-6.2c0-2.4,0.5-4.5,1.4-6.3s2.3-3.2,4.1-4.1c1.8-0.9,3.7-1.4,5.8-1.4
		c2.4,0,4.4,0.6,6.1,1.8c1.6,1.2,2.8,2.9,3.4,5l-3.1,0.7c-0.6-1.7-1.4-2.9-2.4-3.7c-1.1-0.8-2.4-1.2-4-1.2c-1.8,0-3.4,0.4-4.6,1.3
		s-2.1,2-2.6,3.5c-0.5,1.4-0.8,2.9-0.8,4.5c0,2,0.3,3.7,0.9,5.2s1.5,2.6,2.8,3.3c1.3,0.7,2.6,1.1,4.1,1.1c1.8,0,3.3-0.5,4.5-1.5
		C481.8,120.1,482.6,118.7,483,116.7z"/>
	<path class="st2" d="M489.7,124.9v-23.3h3v23.3H489.7z"/>
	<path class="st2" d="M497.2,104.9v-3.3h2.9v3.3H497.2z M497.2,124.9V108h2.9v16.9H497.2z"/>
	<path class="st2" d="M504.7,124.9V108h2.6v2.4c0.5-0.8,1.3-1.5,2.2-2c0.9-0.5,1.9-0.8,3.1-0.8c1.3,0,2.3,0.3,3.2,0.8
		c0.8,0.5,1.4,1.2,1.7,2.2c1.4-2,3.2-3,5.4-3c1.7,0,3.1,0.5,4,1.4s1.4,2.4,1.4,4.3v11.6h-2.9v-10.6c0-1.1-0.1-2-0.3-2.5
		c-0.2-0.5-0.5-0.9-1-1.2s-1.1-0.5-1.8-0.5c-1.2,0-2.2,0.4-3,1.2s-1.2,2.1-1.2,3.8v9.8h-3v-11c0-1.3-0.2-2.2-0.7-2.9
		c-0.5-0.6-1.3-1-2.4-1c-0.8,0-1.6,0.2-2.3,0.6c-0.7,0.4-1.2,1-1.5,1.9c-0.3,0.8-0.5,2-0.5,3.5v8.8H504.7z"/>
	<path class="st2" d="M544,122.8c-1.1,0.9-2.1,1.5-3.2,1.9c-1,0.4-2.1,0.6-3.3,0.6c-1.9,0-3.4-0.5-4.4-1.4c-1-0.9-1.5-2.1-1.5-3.5
		c0-0.8,0.2-1.6,0.6-2.3c0.4-0.7,0.9-1.2,1.5-1.6c0.6-0.4,1.3-0.7,2.1-0.9c0.6-0.1,1.5-0.3,2.6-0.4c2.4-0.3,4.1-0.6,5.3-1
		c0-0.4,0-0.6,0-0.7c0-1.2-0.3-2-0.8-2.5c-0.8-0.6-1.9-1-3.4-1c-1.4,0-2.4,0.2-3.1,0.7c-0.7,0.5-1.2,1.3-1.5,2.5l-2.9-0.4
		c0.3-1.2,0.7-2.2,1.3-2.9c0.6-0.7,1.5-1.3,2.6-1.7c1.1-0.4,2.5-0.6,3.9-0.6c1.5,0,2.7,0.2,3.6,0.5s1.6,0.8,2,1.3
		c0.4,0.5,0.7,1.2,0.9,1.9c0.1,0.5,0.1,1.4,0.1,2.6v3.8c0,2.7,0.1,4.3,0.2,5c0.1,0.7,0.4,1.4,0.7,2h-3.1
		C544.3,124.3,544.1,123.6,544,122.8z M543.7,116.4c-1.1,0.4-2.7,0.8-4.8,1.1c-1.2,0.2-2.1,0.4-2.6,0.6c-0.5,0.2-0.9,0.5-1.2,0.9
		c-0.3,0.4-0.4,0.9-0.4,1.4c0,0.8,0.3,1.4,0.9,1.9s1.5,0.8,2.6,0.8c1.1,0,2.1-0.2,3-0.7s1.5-1.1,2-2c0.3-0.6,0.5-1.6,0.5-2.9V116.4z
		"/>
	<path class="st2" d="M557.7,122.3l0.4,2.5c-0.8,0.2-1.6,0.3-2.2,0.3c-1.1,0-1.9-0.2-2.5-0.5c-0.6-0.3-1-0.8-1.2-1.3
		c-0.2-0.5-0.4-1.7-0.4-3.4v-9.7h-2.2V108h2.2v-4.2l2.9-1.7v5.9h3v2.2h-3v9.9c0,0.8,0.1,1.3,0.2,1.6s0.3,0.4,0.5,0.6
		c0.2,0.1,0.6,0.2,1,0.2C556.8,122.4,557.2,122.4,557.7,122.3z"/>
	<path class="st2" d="M572.5,119.4l3,0.4c-0.5,1.7-1.4,3.1-2.7,4c-1.3,1-3,1.4-5,1.4c-2.5,0-4.6-0.8-6.1-2.3
		c-1.5-1.5-2.2-3.7-2.2-6.4c0-2.8,0.8-5,2.3-6.6s3.5-2.4,5.9-2.4c2.3,0,4.2,0.8,5.7,2.3c1.5,1.5,2.2,3.7,2.2,6.5c0,0.2,0,0.4,0,0.8
		h-13c0.1,1.9,0.7,3.3,1.6,4.3s2.2,1.5,3.6,1.5c1.1,0,2-0.3,2.8-0.8S572.1,120.6,572.5,119.4z M562.8,114.8h9.7
		c-0.1-1.4-0.5-2.5-1.1-3.2c-0.9-1.1-2.2-1.7-3.7-1.7c-1.4,0-2.5,0.4-3.4,1.3C563.5,112.2,562.9,113.3,562.8,114.8z"/>
	<path class="st2" d="M602.3,122.1c-1,1-2,1.8-3.2,2.4s-2.4,0.8-3.7,0.8c-2.5,0-4.4-0.8-5.9-2.4c-1.2-1.3-1.8-2.8-1.8-4.4
		c0-1.4,0.5-2.7,1.4-3.9s2.4-2.2,4.3-3.1c-1.1-1.2-1.8-2.2-2.2-2.9c-0.4-0.8-0.5-1.5-0.5-2.2c0-1.4,0.6-2.6,1.7-3.6s2.6-1.5,4.3-1.5
		c1.6,0,3,0.5,4,1.5c1,1,1.6,2.1,1.6,3.5c0,2.2-1.5,4.1-4.5,5.7l4.3,5.3c0.5-0.9,0.9-2,1.1-3.2l3.1,0.6c-0.5,2-1.2,3.7-2.1,5
		c1.1,1.4,2.4,2.6,3.8,3.6l-2,2.3C604.8,124.7,603.6,123.6,602.3,122.1z M600.5,119.9l-5.4-6.5c-1.6,0.9-2.7,1.8-3.2,2.6
		c-0.6,0.8-0.8,1.6-0.8,2.3c0,0.9,0.4,1.9,1.2,2.9c0.8,1,1.9,1.5,3.3,1.5c0.9,0,1.8-0.3,2.7-0.8
		C599.2,121.4,599.9,120.7,600.5,119.9z M596.3,110c1.3-0.7,2.1-1.4,2.5-1.9s0.6-1.2,0.6-1.8c0-0.8-0.3-1.4-0.8-1.9
		c-0.5-0.5-1.2-0.8-1.9-0.8c-0.8,0-1.5,0.2-2,0.7c-0.5,0.5-0.8,1.1-0.8,1.8c0,0.4,0.1,0.7,0.3,1.1c0.2,0.4,0.5,0.8,0.9,1.3
		L596.3,110z"/>
	<path class="st2" d="M465.9,163.9v-23.3h8.3c1.9,0,3.3,0.1,4.3,0.3c1.4,0.3,2.6,0.9,3.5,1.7c1.3,1,2.2,2.4,2.8,4
		c0.6,1.6,0.9,3.5,0.9,5.5c0,1.8-0.2,3.3-0.6,4.7c-0.4,1.4-1,2.5-1.6,3.4c-0.7,0.9-1.4,1.6-2.2,2.1c-0.8,0.5-1.7,0.9-2.9,1.2
		c-1.1,0.3-2.4,0.4-3.9,0.4H465.9z M469.1,161.2h5.1c1.6,0,2.8-0.1,3.7-0.4c0.9-0.3,1.6-0.7,2.2-1.2c0.8-0.7,1.3-1.7,1.8-2.9
		c0.4-1.2,0.6-2.7,0.6-4.5c0-2.4-0.4-4.3-1.2-5.6s-1.8-2.2-3-2.6c-0.9-0.3-2.2-0.5-4.1-0.5h-5V161.2z"/>
	<path class="st2" d="M501.7,158.5l3,0.4c-0.5,1.7-1.4,3.1-2.7,4c-1.3,1-3,1.4-5,1.4c-2.5,0-4.6-0.8-6.1-2.3
		c-1.5-1.5-2.2-3.7-2.2-6.4c0-2.8,0.8-5,2.3-6.6s3.5-2.4,5.9-2.4c2.3,0,4.2,0.8,5.7,2.3c1.5,1.5,2.2,3.7,2.2,6.5c0,0.2,0,0.4,0,0.8
		h-13c0.1,1.9,0.7,3.3,1.6,4.3s2.2,1.5,3.6,1.5c1.1,0,2-0.3,2.8-0.8S501.2,159.7,501.7,158.5z M492,153.9h9.7
		c-0.1-1.4-0.5-2.5-1.1-3.2c-0.9-1.1-2.2-1.7-3.7-1.7c-1.4,0-2.5,0.4-3.4,1.3C492.6,151.2,492.1,152.4,492,153.9z"/>
	<path class="st2" d="M513.3,163.9l-6.6-16.9h3.1l3.7,10.1c0.4,1.1,0.8,2.2,1.1,3.4c0.3-0.9,0.6-2,1.1-3.2l3.9-10.3h3l-6.6,16.9
		H513.3z"/>
	<path class="st2" d="M537.1,158.5l3,0.4c-0.5,1.7-1.4,3.1-2.7,4c-1.3,1-3,1.4-5,1.4c-2.5,0-4.6-0.8-6.1-2.3
		c-1.5-1.5-2.2-3.7-2.2-6.4c0-2.8,0.8-5,2.3-6.6s3.5-2.4,5.9-2.4c2.3,0,4.2,0.8,5.7,2.3c1.5,1.5,2.2,3.7,2.2,6.5c0,0.2,0,0.4,0,0.8
		h-13c0.1,1.9,0.7,3.3,1.6,4.3s2.2,1.5,3.6,1.5c1.1,0,2-0.3,2.8-0.8S536.7,159.7,537.1,158.5z M527.4,153.9h9.7
		c-0.1-1.4-0.5-2.5-1.1-3.2c-0.9-1.1-2.2-1.7-3.7-1.7c-1.4,0-2.5,0.4-3.4,1.3C528,151.2,527.5,152.4,527.4,153.9z"/>
	<path class="st2" d="M543.8,163.9v-23.3h3v23.3H543.8z"/>
	<path class="st2" d="M550.2,155.5c0-3.1,0.9-5.4,2.7-6.9c1.5-1.2,3.3-1.9,5.5-1.9c2.4,0,4.3,0.8,5.9,2.3c1.5,1.5,2.3,3.6,2.3,6.3
		c0,2.2-0.3,3.9-1,5.1c-0.7,1.2-1.6,2.2-2.9,2.9s-2.7,1-4.2,1c-2.4,0-4.4-0.8-5.9-2.3C551,160.5,550.2,158.3,550.2,155.5z
		 M553.3,155.5c0,2.2,0.5,3.8,1.5,4.9s2.2,1.6,3.7,1.6c1.5,0,2.7-0.5,3.7-1.6c1-1.1,1.5-2.7,1.5-4.9c0-2.1-0.5-3.7-1.5-4.7
		c-1-1.1-2.2-1.6-3.6-1.6c-1.5,0-2.7,0.5-3.7,1.6C553.7,151.7,553.3,153.3,553.3,155.5z"/>
	<path class="st2" d="M570,170.4V147h2.7v2.2c0.6-0.9,1.3-1.5,2.1-1.9c0.8-0.4,1.8-0.6,2.9-0.6c1.5,0,2.8,0.4,3.9,1.1
		c1.1,0.7,2,1.8,2.6,3.1s0.9,2.8,0.9,4.4c0,1.7-0.3,3.3-1,4.7c-0.6,1.4-1.6,2.4-2.8,3.2c-1.2,0.7-2.5,1.1-3.8,1.1
		c-1,0-1.9-0.2-2.6-0.6s-1.4-0.9-1.9-1.5v8.2H570z M572.7,155.6c0,2.2,0.5,3.8,1.4,4.8c0.9,1,2,1.6,3.3,1.6c1.3,0,2.4-0.5,3.4-1.6
		c0.9-1.1,1.4-2.7,1.4-5c0-2.1-0.5-3.8-1.4-4.8c-0.9-1.1-2-1.6-3.3-1.6c-1.3,0-2.4,0.6-3.3,1.7C573.1,151.7,572.7,153.4,572.7,155.6
		z"/>
	<path class="st2" d="M588.7,163.9V147h2.6v2.4c0.5-0.8,1.3-1.5,2.2-2c0.9-0.5,1.9-0.8,3.1-0.8c1.3,0,2.3,0.3,3.2,0.8
		c0.8,0.5,1.4,1.2,1.7,2.2c1.4-2,3.2-3,5.4-3c1.7,0,3.1,0.5,4,1.4s1.4,2.4,1.4,4.3v11.6h-2.9v-10.6c0-1.1-0.1-2-0.3-2.5
		c-0.2-0.5-0.5-0.9-1-1.2s-1.1-0.5-1.8-0.5c-1.2,0-2.2,0.4-3,1.2s-1.2,2.1-1.2,3.8v9.8h-3v-11c0-1.3-0.2-2.2-0.7-2.9
		c-0.5-0.6-1.3-1-2.4-1c-0.8,0-1.6,0.2-2.3,0.6c-0.7,0.4-1.2,1-1.5,1.9c-0.3,0.8-0.5,2-0.5,3.5v8.8H588.7z"/>
	<path class="st2" d="M628.5,158.5l3,0.4c-0.5,1.7-1.4,3.1-2.7,4c-1.3,1-3,1.4-5,1.4c-2.5,0-4.6-0.8-6.1-2.3
		c-1.5-1.5-2.2-3.7-2.2-6.4c0-2.8,0.8-5,2.3-6.6s3.5-2.4,5.9-2.4c2.3,0,4.2,0.8,5.7,2.3c1.5,1.5,2.2,3.7,2.2,6.5c0,0.2,0,0.4,0,0.8
		h-13c0.1,1.9,0.7,3.3,1.6,4.3s2.2,1.5,3.6,1.5c1.1,0,2-0.3,2.8-0.8S628.1,159.7,628.5,158.5z M618.9,153.9h9.7
		c-0.1-1.4-0.5-2.5-1.1-3.2c-0.9-1.1-2.2-1.7-3.7-1.7c-1.4,0-2.5,0.4-3.4,1.3C619.5,151.2,619,152.4,618.9,153.9z"/>
	<path class="st2" d="M635.3,163.9V147h2.7v2.4c1.3-1.9,3.1-2.8,5.5-2.8c1,0,2,0.2,2.9,0.5c0.9,0.4,1.5,0.8,2,1.4
		c0.4,0.6,0.7,1.3,0.9,2.1c0.1,0.5,0.2,1.5,0.2,2.8v10.4h-3v-10.3c0-1.2-0.1-2-0.3-2.6s-0.6-1-1.2-1.4c-0.6-0.3-1.3-0.5-2.1-0.5
		c-1.3,0-2.3,0.4-3.3,1.2c-0.9,0.8-1.4,2.2-1.4,4.4v9.2H635.3z"/>
	<path class="st2" d="M660.4,161.4l0.4,2.5c-0.8,0.2-1.6,0.3-2.2,0.3c-1.1,0-1.9-0.2-2.5-0.5c-0.6-0.3-1-0.8-1.2-1.3
		c-0.2-0.5-0.4-1.7-0.4-3.4v-9.7h-2.2V147h2.2v-4.2l2.9-1.7v5.9h3v2.2h-3v9.9c0,0.8,0.1,1.3,0.2,1.6c0.1,0.2,0.3,0.4,0.5,0.6
		c0.2,0.1,0.6,0.2,1,0.2C659.4,161.5,659.9,161.4,660.4,161.4z"/>
	<path class="st2" d="M466.4,203v-23.3h3.2V203H466.4z"/>
	<path class="st2" d="M474.8,203v-16.9h2.7v2.4c1.3-1.9,3.1-2.8,5.5-2.8c1,0,2,0.2,2.9,0.5c0.9,0.4,1.5,0.8,2,1.4
		c0.4,0.6,0.7,1.3,0.9,2.1c0.1,0.5,0.2,1.5,0.2,2.8V203h-3v-10.3c0-1.2-0.1-2-0.3-2.6s-0.6-1-1.2-1.4c-0.6-0.3-1.3-0.5-2.1-0.5
		c-1.3,0-2.3,0.4-3.3,1.2c-0.9,0.8-1.4,2.2-1.4,4.4v9.2H474.8z"/>
	<path class="st2" d="M493.5,183v-3.3h2.9v3.3H493.5z M493.5,203v-16.9h2.9V203H493.5z"/>
	<path class="st2" d="M507.4,200.4l0.4,2.5c-0.8,0.2-1.6,0.3-2.2,0.3c-1.1,0-1.9-0.2-2.5-0.5c-0.6-0.3-1-0.8-1.2-1.3
		c-0.2-0.5-0.4-1.7-0.4-3.4v-9.7h-2.2v-2.2h2.2v-4.2l2.9-1.7v5.9h3v2.2h-3v9.9c0,0.8,0.1,1.3,0.2,1.6c0.1,0.2,0.3,0.4,0.5,0.6
		c0.2,0.1,0.6,0.2,1,0.2C506.4,200.5,506.9,200.5,507.4,200.4z"/>
	<path class="st2" d="M510.3,183v-3.3h2.9v3.3H510.3z M510.3,203v-16.9h2.9V203H510.3z"/>
	<path class="st2" d="M529.1,200.9c-1.1,0.9-2.1,1.5-3.2,1.9c-1,0.4-2.1,0.6-3.3,0.6c-1.9,0-3.4-0.5-4.4-1.4c-1-0.9-1.5-2.1-1.5-3.5
		c0-0.8,0.2-1.6,0.6-2.3c0.4-0.7,0.9-1.2,1.5-1.6c0.6-0.4,1.3-0.7,2.1-0.9c0.6-0.1,1.5-0.3,2.6-0.4c2.4-0.3,4.1-0.6,5.3-1
		c0-0.4,0-0.6,0-0.7c0-1.2-0.3-2-0.8-2.5c-0.8-0.6-1.9-1-3.4-1c-1.4,0-2.4,0.2-3.1,0.7c-0.7,0.5-1.2,1.3-1.5,2.5l-2.9-0.4
		c0.3-1.2,0.7-2.2,1.3-2.9s1.5-1.3,2.6-1.7c1.1-0.4,2.5-0.6,3.9-0.6c1.5,0,2.7,0.2,3.6,0.5s1.6,0.8,2,1.3c0.4,0.5,0.7,1.2,0.9,1.9
		c0.1,0.5,0.1,1.4,0.1,2.6v3.8c0,2.7,0.1,4.3,0.2,5c0.1,0.7,0.4,1.4,0.7,2h-3.1C529.4,202.4,529.2,201.7,529.1,200.9z M528.9,194.5
		c-1.1,0.4-2.7,0.8-4.8,1.1c-1.2,0.2-2.1,0.4-2.6,0.6c-0.5,0.2-0.9,0.5-1.2,0.9c-0.3,0.4-0.4,0.9-0.4,1.4c0,0.8,0.3,1.4,0.9,1.9
		c0.6,0.5,1.5,0.8,2.6,0.8c1.1,0,2.1-0.2,3-0.7c0.9-0.5,1.5-1.1,2-2c0.3-0.6,0.5-1.6,0.5-2.9V194.5z"/>
	<path class="st2" d="M542.9,200.4l0.4,2.5c-0.8,0.2-1.6,0.3-2.2,0.3c-1.1,0-1.9-0.2-2.5-0.5c-0.6-0.3-1-0.8-1.2-1.3
		c-0.2-0.5-0.4-1.7-0.4-3.4v-9.7h-2.2v-2.2h2.2v-4.2l2.9-1.7v5.9h3v2.2h-3v9.9c0,0.8,0.1,1.3,0.2,1.6c0.1,0.2,0.3,0.4,0.5,0.6
		c0.2,0.1,0.6,0.2,1,0.2C541.9,200.5,542.3,200.5,542.9,200.4z"/>
	<path class="st2" d="M545.8,183v-3.3h2.9v3.3H545.8z M545.8,203v-16.9h2.9V203H545.8z"/>
	<path class="st2" d="M558,203l-6.6-16.9h3.1l3.7,10.1c0.4,1.1,0.8,2.2,1.1,3.4c0.3-0.9,0.6-2,1.1-3.2l3.9-10.3h3l-6.6,16.9H558z"/>
	<path class="st2" d="M581.9,197.5l3,0.4c-0.5,1.7-1.4,3.1-2.7,4c-1.3,1-3,1.4-5,1.4c-2.5,0-4.6-0.8-6.1-2.3
		c-1.5-1.5-2.2-3.7-2.2-6.4c0-2.8,0.8-5,2.3-6.6s3.5-2.4,5.9-2.4c2.3,0,4.2,0.8,5.7,2.3c1.5,1.5,2.2,3.7,2.2,6.5c0,0.2,0,0.4,0,0.8
		h-13c0.1,1.9,0.7,3.3,1.6,4.3s2.2,1.5,3.6,1.5c1.1,0,2-0.3,2.8-0.8S581.4,198.7,581.9,197.5z M572.2,192.9h9.7
		c-0.1-1.4-0.5-2.5-1.1-3.2c-0.9-1.1-2.2-1.7-3.7-1.7c-1.4,0-2.5,0.4-3.4,1.3C572.8,190.3,572.3,191.4,572.2,192.9z"/>
</g>
</svg>
