<svg height="68" viewBox="0 0 643 68" width="643" xmlns="http://www.w3.org/2000/svg"><g fill="none" fill-rule="evenodd"><g fill="#000" transform="translate(135 9.132)"><path d="m.1464 22.3065h9.6174v-4.4412h-.5514c-1.3476 0-1.6536-.6432-1.3476-2.0826h5.0538l.5514 2.0826h-2.205v4.4412h11.823v-4.4412h-.3678c-.2142 0-.735-.3372-.8268-.6126l-5.0232-16.3866h-12.8646v4.5942h.7044c.3372 0 .6432.5514.5514.7962l-3.7368 10.6896c-.1836.5208-.7044.9192-1.164.9192h-.2142zm10.4142-15.1614h.0918l1.317 5.0844h-3.0324zm15.4674 15.1614h12.0984v-4.4412h-2.0826v-3.0936h4.6248v-5.0538h-4.6248v-3.8898h3.1548l.7044 2.8788h4.809v-7.8408h-18.684v4.5942h.735c.3066 0 .8274.5208.8274.8274v10.7508c0 .306-.5208.8268-.8274.8268h-.735zm21.624 0h11.5476v-4.4412h-1.5318v-3.1548h.9498c1.041 0 1.5312.4902 1.6536 1.7766l.5514 5.8194h8.7906v-4.4412h-.2754c-.276 0-.6432-.2142-.7662-.7656l-.1836-.9192c-.5514-2.7564-1.623-3.6756-3.7062-4.1346v-.123c2.7876-.8268 3.7674-2.5116 3.7674-4.8696 0-4.1352-2.634-6.1872-9.4032-6.1872h-11.394v4.5942h.735c.3066 0 .8274.5208.8274.8274v10.7508c0 .306-.5208.8268-.8274.8268h-.735zm9.771-16.4784h.6126c1.47 0 2.052.7044 2.052 2.2356 0 1.5318-.5514 2.2056-2.052 2.2056h-.6126zm15.1302 16.4784h11.823v-4.4412h-.8574c-.3066 0-.8274-.5208-.8274-.8268v-10.7508c0-.3066.5208-.8274.8274-.8274h.8574v-4.5942h-11.823v4.5942h.8574c.3066 0 .8274.5208.8274.8274v10.7508c0 .306-.5208.8268-.8274.8268h-.8574zm25.5756.3678c3.216 0 6.3708-.858 8.331-2.0832v-5.3598h-4.2576c-.735.9492-1.8072 1.9296-3.216 1.9296-2.328 0-3.1242-1.8072-3.1242-5.6358 0-4.2882 1.5006-5.5134 3.7368-5.5134.2142 0 .4596 0 .7044.0306l.8268 2.8794h5.3298v-8.0556h-5.6052c-1.011-.2142-2.1132-.3678-3.0936-.3678-6.4626 0-10.7814 3.9516-10.7814 11.3634 0 7.1064 4.227 10.8126 11.1492 10.8126zm11.3328-.3678h9.6174v-4.4412h-.5514c-1.3476 0-1.6536-.6432-1.3476-2.0826h5.0538l.5514 2.0826h-2.2056v4.4412h11.823v-4.4412h-.3672c-.2148 0-.7356-.3372-.8274-.6126l-5.0232-16.3866h-12.864v4.5942h.7044c.3372 0 .6432.5514.5514.7962l-3.7368 10.6896c-.1836.5208-.7044.9192-1.164.9192h-.2142zm10.4136-15.1614h.0918l1.3176 5.0844h-3.0324zm15.468 15.1614h9.2502v-4.4412h-1.6848v-6.2178h.0918l5.8806 10.659h7.3818v-16.0188c0-.3066.5208-.8274.8274-.8274h.612v-4.5942h-9.0354v4.5942h1.593v4.9926h-.0924l-5.268-9.5868h-9.5562v4.5942h.735c.3066 0 .8268.5208.8268.8274v10.7508c0 .306-.5202.8268-.8268.8268h-.735zm42.5436.3678c3.216 0 6.3708-.858 8.331-2.0832v-5.3598h-4.2576c-.735.9492-1.8072 1.9296-3.216 1.9296-2.328 0-3.1242-1.8072-3.1242-5.6358 0-4.2882 1.5006-5.5134 3.7368-5.5134.2142 0 .4596 0 .7044.0306l.8268 2.8794h5.3298v-8.0556h-5.6052c-1.011-.2142-2.1132-.3678-3.0936-.3678-6.4626 0-10.7814 3.9516-10.7814 11.3634 0 7.1064 4.227 10.8126 11.1492 10.8126zm11.3328-.3678h19.143v-7.7796h-5.0538l-.6432 2.9706h-3.4302v-3.6756h4.6248v-4.9308h-4.6248v-3.063h3.369l.7044 2.4198h4.809v-7.3818h-18.8982v4.5942h.735c.306 0 .8268.5208.8268.8274v10.7508c0 .306-.5208.8268-.8268.8268h-.735zm22.2054 0h9.2502v-4.4412h-1.6842v-6.2178h.0918l5.8806 10.659h7.3818v-16.0188c0-.3066.5208-.8274.8268-.8274h.6126v-4.5942h-9.0354v4.5942h1.5924v4.9926h-.0918l-5.268-9.5868h-9.5568v4.5942h.7356c.306 0 .8268.5208.8268.8274v10.7508c0 .306-.5208.8268-.8268.8268h-.7356zm29.8632 0h11.823v-4.4412h-.8574c-.3066 0-.8274-.5208-.8274-.8268v-11.3634h.7662l.5514 3.675h4.9308v-8.484h-20.9502v8.484h4.9314l.5514-3.675h.7656v11.3634c0 .306-.5208.8268-.8268.8268h-.858zm19.3272 0h11.547v-4.4412h-1.5312v-3.1548h.9492c1.0416 0 1.5318.4902 1.6542 1.7766l.5514 5.8194h8.7906v-4.4412h-.2754c-.276 0-.6438-.2142-.7662-.7656l-.1836-.9192c-.5514-2.7564-1.6236-3.6756-3.7062-4.1346v-.123c2.787-.8268 3.7674-2.5116 3.7674-4.8696 0-4.1352-2.634-6.1872-9.4032-6.1872h-11.394v4.5942h.735c.3066 0 .8268.5208.8268.8274v10.7508c0 .306-.5202.8268-.8268.8268h-.735zm9.771-16.4784h.612c1.4706 0 2.0526.7044 2.0526 2.2356 0 1.5318-.5514 2.2056-2.0526 2.2056h-.612zm15.1302 16.4784h19.143v-7.7796h-5.0538l-.6432 2.9706h-3.4302v-3.6756h4.6248v-4.9308h-4.6248v-3.063h3.369l.7044 2.4198h4.809v-7.3818h-18.8982v4.5942h.735c.3066 0 .8268.5208.8268.8274v10.7508c0 .306-.5202.8268-.8268.8268h-.735zm28.3314 0h12.0984v-4.4412h-2.0826v-3.0936h4.6248v-5.0538h-4.6248v-3.8898h3.1548l.7044 2.8788h4.809v-7.8408h-18.684v4.5942h.735c.3066 0 .8274.5208.8274.8274v10.7508c0 .306-.5208.8268-.8274.8268h-.735zm32.6814.3678c6.6162 0 11.394-3.9822 11.394-11.088s-5.0232-11.088-11.394-11.088-11.394 3.9822-11.394 11.088 4.7784 11.088 11.394 11.088zm0-5.238c-1.6848 0-2.7258-1.8684-2.7258-5.697s1.041-5.5134 2.7258-5.5134 2.7258 1.6848 2.7258 5.5134-1.041 5.697-2.7258 5.697zm13.9974 4.8702h11.5476v-4.4412h-1.5318v-3.1548h.9498c1.041 0 1.5312.4902 1.6536 1.7766l.5514 5.8194h8.7906v-4.4412h-.2754c-.276 0-.6432-.2142-.7656-.7656l-.1842-.9192c-.5514-2.7564-1.623-3.6756-3.7062-4.1346v-.123c2.7876-.8268 3.7674-2.5116 3.7674-4.8696 0-4.1352-2.634-6.1872-9.4032-6.1872h-11.394v4.5942h.7356c.306 0 .8268.5208.8268.8274v10.7508c0 .306-.5208.8268-.8268.8268h-.7356zm9.771-16.4784h.6126c1.47 0 2.052.7044 2.052 2.2356 0 1.5318-.5514 2.2056-2.052 2.2056h-.6126zm32.3748 16.8462c3.216 0 6.3708-.858 8.331-2.0832v-5.3598h-4.2576c-.735.9492-1.8072 1.9296-3.216 1.9296-2.328 0-3.1242-1.8072-3.1242-5.6358 0-4.2882 1.5006-5.5134 3.7368-5.5134.2142 0 .4596 0 .7044.0306l.8268 2.8794h5.3298v-8.0556h-5.6052c-1.011-.2142-2.1138-.3678-3.0936-.3678-6.4626 0-10.7814 3.9516-10.7814 11.3634 0 7.1064 4.2264 10.8126 11.1492 10.8126zm11.3328-.3678h11.8224v-4.4412h-.8574c-.3066 0-.8268-.5208-.8268-.8268v-10.7508c0-.3066.5202-.8274.8268-.8274h.8574v-4.5942h-11.8224v4.5942h.8574c.306 0 .8268.5208.8268.8274v10.7508c0 .306-.5208.8268-.8268.8268h-.8574zm19.3266 0h11.823v-4.4412h-.858c-.306 0-.8268-.5208-.8268-.8268v-11.3634h.7656l.5514 3.675h4.9314v-8.484h-20.9502v8.484h4.9314l.5508-3.675h.7662v11.3634c0 .306-.5208.8268-.8274.8268h-.8574zm19.3266 0h11.823v-4.4412h-.8574c-.3066 0-.8268-.5208-.8268-.8268v-10.7508c0-.3066.5202-.8274.8268-.8274h.8574v-4.5942h-11.823v4.5942h.858c.306 0 .8268.5208.8268.8274v10.7508c0 .306-.5208.8268-.8268.8268h-.858zm14.7636 0h19.143v-7.7796h-5.0538l-.6432 2.9706h-3.4302v-3.6756h4.6248v-4.9308h-4.6248v-3.063h3.369l.7044 2.4198h4.809v-7.3818h-18.8982v4.5942h.735c.306 0 .8268.5208.8268.8274v10.7508c0 .306-.5208.8268-.8268.8268h-.735zm31.0578.3678c6.0336 0 8.5452-2.604 8.5452-7.4124 0-4.2576-1.8378-5.6664-7.8102-7.3206-.9804-.2754-1.9296-.4902-1.9296-1.5006 0-1.011.7656-1.44 2.1438-1.44.3066 0 .6432.0306.9186.0618l.705 2.2356h5.3598v-6.432h-4.227c-1.041-.2142-2.1132-.3678-4.2876-.3678-4.5948 0-8.2704 1.899-8.2704 7.1982 0 5.2068 3.4308 6.2484 6.6162 7.0446 1.899.4902 2.6646.7962 2.6646 1.746 0 1.041-.9186 1.3782-2.0214 1.3782-.429 0-.7962-.0306-1.1334-.0918l-.7044-2.3892h-5.4216v6.9222h5.085c1.2252.2448 2.2662.3678 3.7674.3678z"/><path d="m82.85802 48.31068c1.6692 0 3.1506-1.0266 4.257-2.1744l-.0942.4554c-.2058 1.068.2814 1.6794 1.1442 1.6794.5622 0 .8814-.1182 1.05-.1974l.1314-.5916h-.6378c-.4122 0-.7122-.4152-.6-.9102l1.7628-8.1312c.075-.3762-.0378-.5742-.2628-.5742h-.7122l-1.6314 7.4592c-1.1814 1.0878-2.5506 2.097-3.9942 2.097-1.0314 0-1.5372-.6726-1.2378-2.058l1.2564-5.7588c.2436-1.128-.1686-1.818-1.0668-1.818-.5268 0-.9756.1578-1.1256.2166l-.1494.6114h.6732c.4506 0 .714.396.6018.891l-1.2942 5.9568c-.3936 1.8006.4308 2.847 1.9296 2.847zm10.2036-.1188h.6936l1.5564-7.1226c1.029-1.2264 2.1168-2.2752 3.561-2.2752.1686 0 .375.0198.375.0198l.2058-.9474c-.0558-.0198-.225-.0588-.4686-.0588-1.4436 0-2.5878 1.1448-3.4854 2.3118l.111-.4746c.2994-1.2852-.261-1.857-1.1238-1.857-.45 0-.9936.1578-1.125.2166l-.1314.6114h.7128c.4686 0 .7314.396.6186.8904l-1.7628 8.112c-.0936.3756.0378.5736.2628.5736zm11.3454.0792c1.3686 0 2.5878-.4932 3.5442-1.521 1.1052-1.2072 1.929-3.3246 1.929-5.6406 0-2.3154-1.1418-3.3414-2.7168-3.3414-1.7814 0-3.1506 1.2438-4.0692 2.3124l1.1814-5.3808c.0564-.2364-.0186-.3546-.2064-.3546h-2.1942l-.1686.7296h.9c.2814 0 .45.2574.375.5742l-2.7378 12.543h.45c.2064 0 .525-.534.75-1.0482.5064.516 1.2564 1.1274 2.9634 1.1274zm-.075-.7692c-1.482 0-2.1006-.435-2.6442-.9696l1.2186-5.5608c1.05-1.1286 2.4192-2.3556 3.9756-2.3556 1.0314 0 1.8942.6138 1.8942 2.6124 0 2.0784-.6192 3.8394-1.5192 4.908-.7878.9306-1.8564 1.3656-2.925 1.3656zm14.7552.7692c.3936 0 .7878-.138.9192-.1974l.1308-.6312c-.1872.0396-.3936.0594-.6.0594-.5064 0-.7308-.3762-.6186-.9108l1.2186-5.5002c.4878-2.2374-.8976-3.3228-2.8668-3.3228-1.6326 0-2.5326.3348-3.3582.7494l-.2064.9696h.5442c.675-.5544 1.4256-.9108 2.8512-.9108 1.4058 0 2.325.792 1.95 2.475l-.3948 1.74c-.6738-.315-1.4238-.5124-2.4744-.5124-2.4576 0-4.143 1.1256-4.143 3.4812 0 1.524 1.0848 2.5308 2.6988 2.5308 1.3878 0 2.3448-.69 3.1518-1.68-.2256 1.0092.243 1.6602 1.1976 1.6602zm-4.2186-.7692c-1.0692 0-1.8006-.6732-1.8006-1.821 0-1.8414 1.2192-2.6526 3.0954-2.6526.9756 0 1.6884.1782 2.3436.4752l-.468 2.1972c-.7686.9696-1.7628 1.8012-3.1704 1.8012zm16.2204.7692c.564 0 .882-.138 1.0128-.1974l.1314-.5916h-.5616c-.4314 0-.7326-.4152-.6204-.93l1.3314-6.1152c.375-1.722-.3744-2.6688-1.7796-2.6688-1.7262 0-3.4146 1.1646-4.575 2.2926l.111-.495c.2802-1.2258-.2802-1.7778-1.1238-1.7778-.4686 0-1.0128.177-1.1436.2166l-.1314.6114h.7122c.4692 0 .7314.396.6192.8904l-1.7628 8.112c-.0936.3756.0372.5736.2628.5736h.6936l1.5936-7.32c1.2006-1.0878 2.832-2.1768 4.3698-2.1768.8814 0 1.3308.594 1.05 1.8606l-1.3128 6.0162c-.225 1.0482.2622 1.6992 1.1232 1.6992zm5.9256 0c.564 0 .8646-.1182 1.0146-.1974l.1314-.5916h-.582c-.4326 0-.7704-.4152-.6582-.8904l1.5378-7.065c.2628-1.167-.1494-1.7388-1.104-1.7388-.6018 0-1.0512.177-1.182.2166l-.1308.6114h.7482c.4512 0 .7146.396.6024.891l-1.5378 7.0254c-.2436 1.0878.2244 1.7388 1.1604 1.7388zm1.6512-11.871c.3744 0 .7674-.3552.7674-.81 0-.3948-.2808-.7308-.711-.7308-.3936 0-.7488.3558-.7488.81 0 .3954.2808.7308.6924.7308zm5.1558 11.871c2.3832 0 3.7314-1.3032 3.7314-3.1044 0-1.5042-.879-2.0778-2.361-2.7114-1.164-.4944-1.9704-.8706-1.9704-1.8996 0-1.2072.8256-1.9992 2.5146-1.9992.8814 0 1.275.099 1.5942.3762.2628.2178.2814.6534.2628 1.227h.6726l.3564-1.7016c-.6552-.3942-1.3668-.69-2.8116-.69-2.2326 0-3.5622 1.1448-3.5622 2.946 0 1.4448.8418 1.9986 2.2488 2.5926 1.2012.5142 2.0454.8706 2.0454 1.959 0 1.2468-.9006 2.256-2.7396 2.256-.8808 0-1.4796-.099-1.8558-.4746-.2448-.2574-.2634-.693-.2262-1.326h-.7098l-.3942 1.761c.7878.4536 1.5942.789 3.2046.789zm20.6838 0c.5826 0 .882-.138 1.0314-.1974l.1314-.5916h-.5802c-.4314 0-.7518-.4152-.6396-.8904l1.3506-6.1548c.3558-1.6626-.3558-2.6688-1.761-2.6688-1.707 0-3.2082 1.1844-4.3152 2.2728.1506-1.4244-.5424-2.2728-1.779-2.2728-1.7076 0-3.246 1.2042-4.2756 2.2134l.111-.5148c.243-1.107-.2982-1.6788-1.1232-1.6788-.5442 0-1.0506.177-1.1628.2166l-.1314.6114h.7128c.4686 0 .7314.396.6186.8904l-1.7628 8.112c-.0936.3756.0378.5736.2628.5736h.6936l1.6128-7.419c1.125-.9696 2.5314-2.0778 3.9378-2.0778.9756 0 1.425.594 1.1064 2.0184l-1.5 6.9048c-.0936.3756.0378.5736.2628.5736h.6936l1.6104-7.3992c1.1442-.9894 2.514-2.0976 4.0338-2.0976.8628 0 1.3314.5544 1.0128 1.9986l-1.2564 5.7396c-.2436 1.1082.2058 1.8378 1.1046 1.8378zm7.5024 3.126h.675c.9-.3954 1.7622-1.2264 2.1-2.9082l2.0436-9.873h2.118l.1686-.7494h-2.1372l.2064-1.0098c.3-1.386.8436-1.8216 1.7622-1.8216.3936 0 .6378.1188.75.2376h.5622l.15-.7704c-.2622-.1182-.7308-.2562-1.4622-.2562-1.4436 0-2.4372.7098-2.8308 2.571l-.225 1.0494h-1.3872l-.1686.7494h1.4058l-2.0058 9.8532c-.2814 1.365-1.0122 1.998-1.575 2.2554zm8.9826-3.2052h.6936l1.5564-7.1226c1.029-1.2264 2.1168-2.2752 3.5604-2.2752.1692 0 .375.0198.375.0198l.2064-.9474c-.0564-.0198-.225-.0588-.4686-.0588-1.4442 0-2.5878 1.1448-3.4854 2.3118l.111-.4746c.2988-1.2852-.261-1.857-1.1238-1.857-.45 0-.9942.1578-1.125.2166l-.1314.6114h.7128c.4686 0 .7308.396.6186.8904l-1.7628 8.112c-.0936.3756.0378.5736.2628.5736zm11.0436.0792c3.114 0 5.3622-2.946 5.3622-6.4686 0-2.4342-1.4418-4.0344-3.8052-4.0344-3.0954 0-5.4 2.8668-5.4 6.3894 0 2.5332 1.4418 4.1136 3.843 4.1136zm.0378-.7494c-1.7826 0-2.7954-1.1676-2.7954-3.2454 0-3.1074 1.7262-5.7198 4.2582-5.7198 1.782 0 2.7762 1.1682 2.7762 3.1866 0 3.0078-1.6692 5.7786-4.239 5.7786zm21.6582.7494c.5826 0 .882-.138 1.0314-.1974l.1308-.5916h-.5796c-.4314 0-.7518-.4152-.6396-.8904l1.3506-6.1548c.3558-1.6626-.3558-2.6688-1.761-2.6688-1.707 0-3.2082 1.1844-4.3152 2.2728.15-1.4244-.5424-2.2728-1.779-2.2728-1.7076 0-3.246 1.2042-4.2756 2.2134l.111-.5148c.243-1.107-.2982-1.6788-1.1232-1.6788-.5442 0-1.0506.177-1.1628.2166l-.1314.6114h.7128c.4686 0 .7314.396.6186.8904l-1.7628 8.112c-.0936.3756.0378.5736.2628.5736h.6936l1.6128-7.419c1.125-.9696 2.5314-2.0778 3.9378-2.0778.975 0 1.425.594 1.1064 2.0184l-1.5 6.9048c-.0936.3756.0372.5736.2622.5736h.6942l1.6104-7.3992c1.1442-.9894 2.514-2.0976 4.0332-2.0976.8634 0 1.3314.5544 1.0134 1.9986l-1.2564 5.7396c-.2442 1.1082.2058 1.8378 1.1046 1.8378zm15.789 0c.3936 0 .7872-.138.9186-.1974l.1314-.6312c-.1878.0396-.3942.0594-.6.0594-.5064 0-.7314-.3762-.6192-.9108l1.2192-5.5002c.4872-2.2374-.8982-3.3228-2.8674-3.3228-1.632 0-2.5326.3348-3.3582.7494l-.2064.9696h.5442c.6756-.5544 1.4262-.9108 2.8518-.9108 1.4052 0 2.325.792 1.95 2.475l-.3948 1.74c-.6738-.315-1.4238-.5124-2.4744-.5124-2.4576 0-4.1436 1.1256-4.1436 3.4812 0 1.524 1.0854 2.5308 2.6988 2.5308 1.3884 0 2.3454-.69 3.1518-1.68-.225 1.0092.2436 1.6602 1.1982 1.6602zm-4.2186-.7692c-1.0692 0-1.8012-.6732-1.8012-1.821 0-1.8414 1.2198-2.6526 3.096-2.6526.975 0 1.6884.1782 2.343.4752l-.4674 2.1972c-.7692.9696-1.7634 1.8012-3.1704 1.8012zm16.2198.7692c.564 0 .8826-.138 1.0134-.1974l.1308-.5916h-.561c-.432 0-.7332-.4152-.621-.93l1.332-6.1152c.375-1.722-.3744-2.6688-1.7796-2.6688-1.7262 0-3.4146 1.1646-4.5756 2.2926l.111-.495c.2808-1.2258-.2796-1.7778-1.1232-1.7778-.4692 0-1.0128.177-1.1442.2166l-.1314.6114h.7128c.4686 0 .7314.396.6186.8904l-1.7622 8.112c-.0942.3756.0372.5736.2622.5736h.6936l1.5942-7.32c1.2-1.0878 2.8314-2.1768 4.3692-2.1768.8814 0 1.3308.594 1.05 1.8606l-1.3128 6.0162c-.2244 1.0482.2622 1.6992 1.1232 1.6992zm15.789 0c.3942 0 .7878-.138.9192-.1974l.1314-.6312c-.1878.0396-.3942.0594-.6006.0594-.5058 0-.7308-.3762-.6186-.9108l1.2192-5.5002c.4872-2.2374-.8982-3.3228-2.8674-3.3228-1.632 0-2.5326.3348-3.3582.7494l-.2064.9696h.5442c.675-.5544 1.4256-.9108 2.8518-.9108 1.4052 0 2.325.792 1.9494 2.475l-.3948 1.74c-.6732-.315-1.4232-.5124-2.4738-.5124-2.4582 0-4.1436 1.1256-4.1436 3.4812 0 1.524 1.0854 2.5308 2.6988 2.5308 1.3884 0 2.3448-.69 3.1518-1.68-.225 1.0092.243 1.6602 1.1976 1.6602zm-4.218-.7692c-1.0698 0-1.8012-.6732-1.8012-1.821 0-1.8414 1.2192-2.6526 3.0954-2.6526.9756 0 1.6884.1782 2.3436.4752l-.468 2.1972c-.7686.9696-1.7628 1.8012-3.1698 1.8012zm6.5454 3.8952h.675c.9-.3954 1.7622-1.2264 2.1-2.9082l2.043-9.873h2.1186l.1686-.7494h-2.1372l.2064-1.0098c.3-1.386.8436-1.8216 1.7622-1.8216.3936 0 .6378.1188.75.2376h.5622l.15-.7704c-.2622-.1182-.7308-.2562-1.4622-.2562-1.4436 0-2.4372.7098-2.8308 2.571l-.225 1.0494h-1.3872l-.1686.7494h1.4058l-2.0058 9.8532c-.2814 1.365-1.0122 1.998-1.575 2.2554zm8.9826-3.2052h.6936l1.5564-7.1226c1.029-1.2264 2.1168-2.2752 3.5604-2.2752.1692 0 .375.0198.375.0198l.2064-.9474c-.0564-.0198-.225-.0588-.4686-.0588-1.4442 0-2.5878 1.1448-3.4854 2.3118l.111-.4746c.2988-1.2852-.261-1.857-1.1238-1.857-.45 0-.9942.1578-1.125.2166l-.1314.6114h.7128c.4686 0 .7308.396.6186.8904l-1.7628 8.112c-.0936.3756.0378.5736.2628.5736zm9.4302.0792c.5634 0 .8646-.1182 1.0146-.1974l.1308-.5916h-.582c-.432 0-.7698-.4152-.6576-.8904l1.5378-7.065c.2622-1.167-.1494-1.7388-1.1046-1.7388-.6018 0-1.0506.177-1.182.2166l-.1308.6114h.7488c.4512 0 .714.396.6018.891l-1.5378 7.0254c-.2436 1.0878.225 1.7388 1.161 1.7388zm1.6512-11.871c.3744 0 .7674-.3552.7674-.81 0-.3948-.2808-.7308-.7116-.7308-.393 0-.7488.3558-.7488.81 0 .3954.2808.7308.693.7308zm6.3942 11.871c1.7442 0 2.7198-.6702 3.3204-1.1256l.2058-.8706h-.6378c-.5064.5544-1.2378 1.2468-2.8512 1.2468-1.782 0-2.5512-1.2468-2.5512-3.1266 0-3.0678 1.7256-5.8584 4.671-5.8584.4692 0 .8628.0594 1.1442.198.5256.2574.6006.693.5628 1.524h.6918l.4122-1.86c-.5994-.3348-1.3854-.6306-2.736-.6306-3.489 0-5.85 2.9856-5.85 6.627 0 2.2956 1.2168 3.876 3.618 3.876zm13.6314 0c.3942 0 .7878-.138.9192-.1974l.1314-.6312c-.1878.0396-.3942.0594-.6006.0594-.5058 0-.7308-.3762-.6186-.9108l1.2192-5.5002c.4872-2.2374-.8982-3.3228-2.8674-3.3228-1.632 0-2.5326.3348-3.3582.7494l-.2064.9696h.5442c.6756-.5544 1.4256-.9108 2.8518-.9108 1.4052 0 2.325.792 1.9494 2.475l-.3948 1.74c-.6732-.315-1.4232-.5124-2.4738-.5124-2.4582 0-4.1436 1.1256-4.1436 3.4812 0 1.524 1.0854 2.5308 2.6988 2.5308 1.3884 0 2.3454-.69 3.1518-1.68-.225 1.0092.243 1.6602 1.1976 1.6602zm-4.218-.7692c-1.0698 0-1.8012-.6732-1.8012-1.821 0-1.8414 1.2192-2.6526 3.0954-2.6526.9756 0 1.6884.1782 2.3436.4752l-.468 2.1972c-.7686.9696-1.7628 1.8012-3.1698 1.8012zm16.2198.7692c.564 0 .882-.138 1.0134-.1974l.1308-.5916h-.5616c-.4314 0-.7326-.4152-.6204-.93l1.332-6.1152c.3744-1.722-.3744-2.6688-1.7802-2.6688-1.7256 0-3.414 1.1646-4.575 2.2926l.111-.495c.2808-1.2258-.2796-1.7778-1.1238-1.7778-.4686 0-1.0122.177-1.1436.2166l-.1314.6114h.7128c.4686 0 .7314.396.6186.8904l-1.7628 8.112c-.0936.3756.0378.5736.2628.5736h.6936l1.5942-7.32c1.2-1.0878 2.8314-2.1768 4.3692-2.1768.8814 0 1.3308.594 1.05 1.8606l-1.3128 6.0162c-.225 1.0482.2622 1.6992 1.1232 1.6992zm7.1844 3.126h4.0122l.1314-.6702h-1.6122l.7686-3.5808c.5442.5136 1.311 1.026 2.9424 1.026 1.2756 0 2.5326-.4338 3.5082-1.5012 1.1058-1.2072 1.9104-3.4038 1.9104-5.5614 0-2.3946-1.1412-3.3414-2.7174-3.3414-1.782 0-3.1326 1.1448-4.1076 2.352l.1122-.5538c.2814-1.266-.2994-1.7784-1.1418-1.7784-.4686 0-.9936.1578-1.125.2166l-.1314.6114h.7128c.4686 0 .7308.396.6186.891l-2.3064 10.6656c-.0564.2772-.3564.5544-.6378.5544h-.7872zm6.0546-3.9942c-1.35 0-2.0424-.4152-2.6046-.9498l1.1802-5.4222c1.0116-1.1088 2.4378-2.415 3.9948-2.415 1.107 0 1.932.6138 1.932 2.6124 0 2.0784-.6378 3.879-1.557 4.908-.825.891-1.8384 1.2666-2.9454 1.2666zm11.7204.8682c1.7634 0 2.739-.651 3.3396-1.1256l.2064-.8712h-.6378c-.5256.594-1.2756 1.2474-2.8518 1.2474-1.7442 0-2.5326-1.3266-2.5326-3.207 0-.2376.0192-.5544.0378-.7524 4.8024-.0786 7.2384-1.1256 7.2384-3.4812 0-1.6428-1.1982-2.313-2.7174-2.313-3.1326 0-5.6436 2.8674-5.6436 6.5268 0 2.3358 1.1598 3.9762 3.561 3.9762zm-2.3448-5.4582c.4692-2.1972 1.9512-4.2954 4.3896-4.2954.9192 0 1.6884.3954 1.6884 1.6032 0 1.8804-1.9884 2.613-6.078 2.6922zm9.8658 5.379h.6942l1.5564-7.1226c1.029-1.2264 2.1162-2.2752 3.5604-2.2752.1686 0 .375.0198.375.0198l.2064-.9474c-.0564-.0198-.225-.0588-.4686-.0588-1.4442 0-2.5878 1.1448-3.486 2.3118l.111-.4746c.2994-1.2852-.261-1.857-1.1232-1.857-.4506 0-.9942.1578-1.1256.2166l-.1308.6114h.7122c.4692 0 .7314.396.6192.8904l-1.7628 8.112c-.0942.3756.0372.5736.2622.5736zm9.7494.0792c2.3832 0 3.7314-1.3032 3.7314-3.1044 0-1.5042-.8796-2.0778-2.3616-2.7114-1.1634-.4944-1.9704-.8706-1.9704-1.8996 0-1.2072.8256-1.9992 2.5146-1.9992.8814 0 1.2756.099 1.5948.3762.2622.2178.2814.6534.2622 1.227h.6732l.3558-1.7016c-.6552-.3942-1.3662-.69-2.811-.69-2.2326 0-3.5622 1.1448-3.5622 2.946 0 1.4448.8418 1.9986 2.2488 2.5926 1.2012.5142 2.0454.8706 2.0454 1.959 0 1.2468-.9006 2.256-2.7396 2.256-.8814 0-1.4796-.099-1.8558-.4746-.2448-.2574-.2634-.693-.2262-1.326h-.7104l-.3936 1.761c.7878.4536 1.5942.789 3.2046.789zm4.9896 3.126h4.0128l.1314-.6702h-1.6122l.7686-3.5808c.5436.5136 1.311 1.026 2.9424 1.026 1.2756 0 2.5326-.4338 3.5082-1.5012 1.1058-1.2072 1.9104-3.4038 1.9104-5.5614 0-2.3946-1.1412-3.3414-2.7174-3.3414-1.782 0-3.1326 1.1448-4.1076 2.352l.1122-.5538c.2808-1.266-.2994-1.7784-1.1418-1.7784-.4686 0-.9936.1578-1.125.2166l-.1314.6114h.7128c.4686 0 .7308.396.6186.891l-2.3064 10.6656c-.0564.2772-.3564.5544-.6378.5544h-.7878zm6.0552-3.9942c-1.35 0-2.0424-.4152-2.6046-.9498l1.1802-5.4222c1.0116-1.1088 2.4378-2.415 3.9948-2.415 1.107 0 1.932.6138 1.932 2.6124 0 2.0784-.6378 3.879-1.557 4.908-.8256.891-1.8384 1.2666-2.9454 1.2666zm11.7204.8682c1.7634 0 2.739-.651 3.3396-1.1256l.2064-.8712h-.6378c-.5256.594-1.2762 1.2474-2.8518 1.2474-1.7448 0-2.5326-1.3266-2.5326-3.207 0-.2376.0192-.5544.0378-.7524 4.8024-.0786 7.2384-1.1256 7.2384-3.4812 0-1.6428-1.1982-2.313-2.7174-2.313-3.1332 0-5.6442 2.8674-5.6442 6.5268 0 2.3358 1.1604 3.9762 3.5616 3.9762zm-2.3448-5.4582c.4692-2.1972 1.9512-4.2954 4.3896-4.2954.9192 0 1.6884.3954 1.6884 1.6032 0 1.8804-1.9884 2.613-6.078 2.6922zm12.9402 5.4582c1.7442 0 2.7198-.6702 3.3204-1.1256l.2064-.8706h-.6378c-.507.5544-1.2384 1.2468-2.8518 1.2468-1.782 0-2.5512-1.2468-2.5512-3.1266 0-3.0678 1.7262-5.8584 4.671-5.8584.4692 0 .8628.0594 1.1442.198.5256.2574.6006.693.5628 1.524h.6918l.4122-1.86c-.5994-.3348-1.3854-.6306-2.736-.6306-3.489 0-5.85 2.9856-5.85 6.627 0 2.2956 1.2168 3.876 3.618 3.876zm9.375.0198c.5622 0 1.0314-.1182 1.425-.276l.15-.711h-.5436c-.225.1386-.5814.198-.9378.198-.9564 0-1.1622-.6924-.9-1.8996l1.5192-6.9864h2.3814l.1686-.7494h-2.3814l.6186-2.8488h-1.0686l-.6378 2.8488h-1.3302l-.168.7494h1.3482l-1.5354 6.9864c-.3564 1.662.2616 2.6886 1.8918 2.6886zm6.4134-.0198c.564 0 .8646-.1182 1.0146-.1974l.1314-.5916h-.582c-.4326 0-.7704-.4152-.6582-.8904l1.5378-7.065c.2628-1.167-.1494-1.7388-1.104-1.7388-.6018 0-1.0512.177-1.182.2166l-.1314.6114h.7488c.4512 0 .7146.396.6024.891l-1.5378 7.0254c-.2436 1.0878.2244 1.7388 1.1604 1.7388zm1.6512-11.871c.3744 0 .7674-.3552.7674-.81 0-.3948-.2808-.7308-.711-.7308-.3936 0-.7494.3558-.7494.81 0 .3954.2814.7308.693.7308zm5.0448 11.7918h.9564c2.5686-3.084 4.3116-6.546 5.3994-9.5928l.1686-.7326h-1.0314c-.8436 3.3438-2.6622 6.5688-4.6116 9.141h-.0378l-.8994-7.8768c-.0942-.8502-.3-1.3428-1.125-1.3428-.5622 0-.9564.1578-1.1064.2166l-.1308.6114h.5436c.4308 0 .6936.2178.7686.8112zm11.7384.0792c1.7634 0 2.739-.651 3.339-1.1256l.2064-.8712h-.6378c-.525.594-1.2756 1.2474-2.8512 1.2474-1.7448 0-2.5326-1.3266-2.5326-3.207 0-.2376.0186-.5544.0372-.7524 4.8024-.0786 7.2384-1.1256 7.2384-3.4812 0-1.6428-1.1976-2.313-2.7168-2.313-3.1332 0-5.6442 2.8674-5.6442 6.5268 0 2.3358 1.1604 3.9762 3.5616 3.9762zm-2.3448-5.4582c.4686-2.1972 1.9506-4.2954 4.3896-4.2954.9192 0 1.6884.3954 1.6884 1.6032 0 1.8804-1.9884 2.613-6.078 2.6922z"/></g><path d="m.3054 67.3014h67.2708v-67.2708h-67.2708zm57.0006-10.02h-5.8182v-4.314h-6.1596v4.314h-8.223v-4.2288h-6.6258v4.2288h-6.762v-4.2288h-5.5608v4.2288h-7.5804v-10.8498h40.9116v-2.8884-.7776h-40.9116v-16.1904h42.0642v-3.2412l-42.0642-.0006v-13.2828h46.7298v4.0908h-39.2676v2.7456h39.2676v16.7322h-39.0312v3.8196h39.0312z" fill="#d90000"/></g></svg>